<?xml version="1.0" encoding="UTF-8" standalone="no"?>
<!-- Created with Inkscape (http://www.inkscape.org/) -->

<svg
   width="239.87402"
   height="239.87402"
   viewBox="0 0 63.466666 63.466671"
   version="1.1"
   id="svg1"
   inkscape:version="1.3 (0e150ed6c4, 2023-07-21)"
   sodipodi:docname="Logo Staff.svg"
   xmlns:inkscape="http://www.inkscape.org/namespaces/inkscape"
   xmlns:sodipodi="http://sodipodi.sourceforge.net/DTD/sodipodi-0.dtd"
   xmlns="http://www.w3.org/2000/svg"
   xmlns:svg="http://www.w3.org/2000/svg">
  <sodipodi:namedview
     id="namedview1"
     pagecolor="#505050"
     bordercolor="#ffffff"
     borderopacity="1"
     inkscape:showpageshadow="0"
     inkscape:pageopacity="0"
     inkscape:pagecheckerboard="1"
     inkscape:deskcolor="#505050"
     inkscape:document-units="mm"
     inkscape:zoom="2"
     inkscape:cx="125"
     inkscape:cy="54.25"
     inkscape:window-width="1920"
     inkscape:window-height="1009"
     inkscape:window-x="-8"
     inkscape:window-y="615"
     inkscape:window-maximized="1"
     inkscape:current-layer="g1"
     inkscape:export-bgcolor="#2f2f2fff"
     inkscape:lockguides="false" />
  <defs
     id="defs1">
    <inkscape:path-effect
       effect="bspline"
       id="path-effect41"
       is_visible="true"
       lpeversion="1.3"
       weight="33.333333"
       steps="2"
       helper_size="0"
       apply_no_weight="true"
       apply_with_weight="true"
       only_selected="false"
       uniform="false" />
    <inkscape:path-effect
       effect="bspline"
       id="path-effect39"
       is_visible="true"
       lpeversion="1.3"
       weight="33.333333"
       steps="2"
       helper_size="0"
       apply_no_weight="true"
       apply_with_weight="true"
       only_selected="false"
       uniform="false" />
    <inkscape:path-effect
       effect="bspline"
       id="path-effect37"
       is_visible="true"
       lpeversion="1.3"
       weight="33.333333"
       steps="2"
       helper_size="0"
       apply_no_weight="true"
       apply_with_weight="true"
       only_selected="false"
       uniform="false" />
    <inkscape:path-effect
       effect="bspline"
       id="path-effect36"
       is_visible="true"
       lpeversion="1.3"
       weight="33.333333"
       steps="2"
       helper_size="0"
       apply_no_weight="true"
       apply_with_weight="true"
       only_selected="false"
       uniform="false" />
    <inkscape:path-effect
       effect="bspline"
       id="path-effect34"
       is_visible="true"
       lpeversion="1.3"
       weight="33.333333"
       steps="2"
       helper_size="0"
       apply_no_weight="true"
       apply_with_weight="true"
       only_selected="false"
       uniform="false" />
    <inkscape:path-effect
       effect="bspline"
       id="path-effect33"
       is_visible="true"
       lpeversion="1.3"
       weight="33.333333"
       steps="2"
       helper_size="0"
       apply_no_weight="true"
       apply_with_weight="true"
       only_selected="false"
       uniform="false" />
    <inkscape:path-effect
       effect="bspline"
       id="path-effect32"
       is_visible="true"
       lpeversion="1.3"
       weight="33.333333"
       steps="2"
       helper_size="0"
       apply_no_weight="true"
       apply_with_weight="true"
       only_selected="false"
       uniform="false" />
    <inkscape:path-effect
       effect="bspline"
       id="path-effect31"
       is_visible="true"
       lpeversion="1.3"
       weight="33.333333"
       steps="2"
       helper_size="0"
       apply_no_weight="true"
       apply_with_weight="true"
       only_selected="false"
       uniform="false" />
    <inkscape:path-effect
       effect="bspline"
       id="path-effect30"
       is_visible="true"
       lpeversion="1.3"
       weight="33.333333"
       steps="2"
       helper_size="0"
       apply_no_weight="true"
       apply_with_weight="true"
       only_selected="false"
       uniform="false" />
    <inkscape:path-effect
       effect="bspline"
       id="path-effect29"
       is_visible="true"
       lpeversion="1.3"
       weight="33.333333"
       steps="2"
       helper_size="0"
       apply_no_weight="true"
       apply_with_weight="true"
       only_selected="false"
       uniform="false" />
    <inkscape:path-effect
       effect="bspline"
       id="path-effect27"
       is_visible="true"
       lpeversion="1.3"
       weight="33.333333"
       steps="2"
       helper_size="0"
       apply_no_weight="true"
       apply_with_weight="true"
       only_selected="false"
       uniform="false" />
    <inkscape:path-effect
       effect="bspline"
       id="path-effect26"
       is_visible="true"
       lpeversion="1.3"
       weight="33.333333"
       steps="2"
       helper_size="0"
       apply_no_weight="true"
       apply_with_weight="true"
       only_selected="false"
       uniform="false" />
    <inkscape:path-effect
       effect="bspline"
       id="path-effect24"
       is_visible="true"
       lpeversion="1.3"
       weight="33.333333"
       steps="2"
       helper_size="0"
       apply_no_weight="true"
       apply_with_weight="true"
       only_selected="false"
       uniform="false" />
    <inkscape:path-effect
       effect="bspline"
       id="path-effect23"
       is_visible="true"
       lpeversion="1.3"
       weight="33.333333"
       steps="2"
       helper_size="0"
       apply_no_weight="true"
       apply_with_weight="true"
       only_selected="false"
       uniform="false" />
    <inkscape:path-effect
       effect="bspline"
       id="path-effect21"
       is_visible="true"
       lpeversion="1.3"
       weight="33.333333"
       steps="2"
       helper_size="0"
       apply_no_weight="true"
       apply_with_weight="true"
       only_selected="false"
       uniform="false" />
    <inkscape:path-effect
       effect="spiro"
       id="path-effect20"
       is_visible="true"
       lpeversion="1" />
    <inkscape:path-effect
       effect="spiro"
       id="path-effect19"
       is_visible="true"
       lpeversion="1" />
    <inkscape:path-effect
       effect="bspline"
       id="path-effect18"
       is_visible="true"
       lpeversion="1.3"
       weight="33.333333"
       steps="2"
       helper_size="0"
       apply_no_weight="true"
       apply_with_weight="true"
       only_selected="false"
       uniform="false" />
    <inkscape:path-effect
       effect="bspline"
       id="path-effect11"
       is_visible="true"
       lpeversion="1.3"
       weight="33.333333"
       steps="2"
       helper_size="0"
       apply_no_weight="true"
       apply_with_weight="true"
       only_selected="false"
       uniform="false" />
    <inkscape:path-effect
       effect="bspline"
       id="path-effect10"
       is_visible="true"
       lpeversion="1.3"
       weight="33.333333"
       steps="2"
       helper_size="0"
       apply_no_weight="true"
       apply_with_weight="true"
       only_selected="false"
       uniform="false" />
    <inkscape:path-effect
       effect="bspline"
       id="path-effect5"
       is_visible="true"
       lpeversion="1.3"
       weight="33.333333"
       steps="2"
       helper_size="0"
       apply_no_weight="true"
       apply_with_weight="true"
       only_selected="false"
       uniform="false" />
    <inkscape:path-effect
       effect="bspline"
       id="path-effect4"
       is_visible="true"
       lpeversion="1.3"
       weight="33.333333"
       steps="2"
       helper_size="0"
       apply_no_weight="true"
       apply_with_weight="true"
       only_selected="false"
       uniform="false" />
    <inkscape:path-effect
       effect="bspline"
       id="path-effect2"
       is_visible="true"
       lpeversion="1.3"
       weight="33.333333"
       steps="2"
       helper_size="0"
       apply_no_weight="true"
       apply_with_weight="true"
       only_selected="false"
       uniform="false" />
    <inkscape:path-effect
       effect="bspline"
       id="path-effect3"
       is_visible="true"
       lpeversion="1.3"
       weight="33.333333"
       steps="2"
       helper_size="0"
       apply_no_weight="true"
       apply_with_weight="true"
       only_selected="false"
       uniform="false" />
  </defs>
  <g
     inkscape:label="Capa 1"
     inkscape:groupmode="layer"
     id="layer1"
     transform="translate(-83.469688,-104.56116)">
    <g
       id="g1"
       transform="matrix(1.0055348,0,0,1.0519864,-0.32847744,-7.1047635)">
      <g
         id="g45"
         inkscape:export-filename="Logo Staff.png"
         inkscape:export-xdpi="201.21559"
         inkscape:export-ydpi="201.21559">
        <path
           id="path33-9"
           style="fill:#ffffff;fill-opacity:1;stroke:none;stroke-width:0.0241708;stroke-linecap:round;stroke-linejoin:round;stroke-dasharray:none;stroke-dashoffset:0;stroke-opacity:1;paint-order:stroke fill markers"
           d="m 88.113845,148.96893 a 4.7764993,4.7764993 0 0 0 -4.776453,4.77645 4.7764993,4.7764993 0 0 0 2.897498,4.38268 4.7764993,4.7764993 0 0 0 0.02274,0.008 4.7764993,4.7764993 0 0 0 1.248502,0.3421 4.7764993,4.7764993 0 0 0 0.08837,0.006 4.7764993,4.7764993 0 0 0 0.519348,0.0377 4.7764993,4.7764993 0 0 0 4.776452,-4.77697 4.7764993,4.7764993 0 0 0 -0.0946,-0.94309 4.7764993,4.7764993 0 0 0 -0.0227,-0.10232 4.7764993,4.7764993 0 0 0 -4.659146,-3.73104 z m 4.076237,5.44308 c -0.0523,0.10527 -0.10786,0.21226 -0.16743,0.32039 -0.0596,0.10814 -0.12298,0.21699 -0.19017,0.32661 0.0672,-0.10962 0.1306,-0.21846 0.19017,-0.32661 0.0596,-0.10813 0.11515,-0.21512 0.16743,-0.32039 z m -2.36626,2.78329 c -0.11959,0.0863 -0.24076,0.1703 -0.36277,0.25115 0.0555,-0.0368 0.10981,-0.0763 0.16485,-0.1142 0.008,-0.006 0.0162,-0.0109 0.0243,-0.0165 0.0579,-0.0402 0.11636,-0.0791 0.17363,-0.12041 z m -0.45424,0.22686 c -0.11736,0.0401 -0.24502,0.0822 -0.37982,0.12506 0.1348,-0.0429 0.26246,-0.085 0.37982,-0.12506 z" />
        <g
           id="g44"
           transform="translate(0.021033,0.008965)">
          <path
             id="path33"
             style="fill:#999999;fill-opacity:1;stroke:none;stroke-width:0.0241708;stroke-linecap:round;stroke-linejoin:round;stroke-dasharray:none;stroke-dashoffset:0;stroke-opacity:1;paint-order:stroke fill markers"
             d="m 92.774699,152.79326 c -0.0049,0.0198 -0.0084,0.0359 -0.01395,0.0574 -0.01539,0.0588 -0.03354,0.12375 -0.05426,0.19379 -0.02072,0.07 -0.04442,0.14543 -0.0708,0.22531 -0.02638,0.0799 -0.05548,0.16438 -0.08785,0.25269 -0.03237,0.0883 -0.06777,0.1806 -0.106453,0.27596 -0.03868,0.0953 -0.08077,0.19354 -0.126091,0.29455 -0.04532,0.10101 -0.09396,0.20479 -0.146244,0.31006 -0.05228,0.10527 -0.107861,0.21226 -0.167432,0.32039 -0.05957,0.10814 -0.122983,0.21699 -0.190169,0.3266 -0.03359,0.0548 -0.06831,0.10994 -0.103869,0.16485 -0.03556,0.0549 -0.07199,0.11 -0.109554,0.16484 -0.03756,0.0548 -0.07615,0.10921 -0.115756,0.16382 -0.03961,0.0546 -0.08026,0.10911 -0.121956,0.1633 -0.0417,0.0542 -0.08433,0.10814 -0.128158,0.16174 -0.04382,0.0536 -0.08888,0.10685 -0.134875,0.15968 -0.04599,0.0528 -0.09287,0.1052 -0.141077,0.1571 -0.0482,0.0519 -0.09786,0.10372 -0.148311,0.15451 -0.05045,0.0508 -0.101909,0.1008 -0.154513,0.15038 -0.0526,0.0496 -0.106196,0.0984 -0.160713,0.14676 -0.05452,0.0483 -0.109689,0.0961 -0.165882,0.14315 -0.05619,0.0471 -0.113418,0.0937 -0.171049,0.13952 -0.05763,0.0458 -0.115835,0.0909 -0.174666,0.13539 -0.05883,0.0445 -0.11849,0.0881 -0.178284,0.13126 -0.119586,0.0863 -0.240759,0.1703 -0.362768,0.25115 -0.12201,0.0808 -0.24489,0.15891 -0.36742,0.23409 -0.122529,0.0752 -0.244722,0.14721 -0.365869,0.21653 -0.121147,0.0693 -0.240772,0.13569 -0.358634,0.19895 -0.117863,0.0633 -0.234074,0.12334 -0.346749,0.18035 -0.112676,0.057 -0.222043,0.11119 -0.327629,0.16175 -0.03481,0.0167 -0.06635,0.0306 -0.100252,0.0465 a 4.7764993,4.7764993 0 0 0 0.519348,0.0377 4.7764993,4.7764993 0 0 0 4.776453,-4.77697 4.7764993,4.7764993 0 0 0 -0.09457,-0.94309 z" />
          <path
             id="path35"
             style="fill:#cccccc;fill-opacity:1;stroke:none;stroke-width:0.0241708;stroke-linecap:round;stroke-linejoin:round;stroke-dasharray:none;stroke-dashoffset:0;stroke-opacity:1;paint-order:stroke fill markers"
             d="m 89.604867,157.32322 c -0.08008,0.0286 -0.162269,0.0578 -0.256316,0.0899 -0.117359,0.0401 -0.245019,0.0822 -0.379821,0.12506 -0.0674,0.0214 -0.136359,0.043 -0.207223,0.0646 -0.07086,0.0216 -0.143313,0.0432 -0.217041,0.0646 -0.07373,0.0214 -0.148799,0.0427 -0.224792,0.0636 -0.07599,0.0209 -0.152817,0.0415 -0.230477,0.0615 -0.07766,0.02 -0.1564,0.0392 -0.235128,0.0579 -0.07873,0.0187 -0.157481,0.0371 -0.236678,0.0543 -0.0792,0.0171 -0.158665,0.0332 -0.237712,0.0486 -0.07905,0.0154 -0.157903,0.0297 -0.236161,0.0434 -0.07826,0.0137 -0.155713,0.0266 -0.232544,0.0388 -0.07683,0.0121 -0.153128,0.0239 -0.227893,0.0346 -0.07476,0.0107 -0.148082,0.0207 -0.220142,0.03 -0.07206,0.009 -0.14264,0.0179 -0.211356,0.0258 -0.0053,6.2e-4 -0.0097,9.4e-4 -0.01499,0.002 a 4.7764993,4.7764993 0 0 0 1.248502,0.3421 4.7764993,4.7764993 0 0 0 0.08837,0.006 c 0.0339,-0.016 0.06544,-0.0298 0.100252,-0.0465 0.105586,-0.0506 0.214953,-0.10474 0.327629,-0.16175 0.112675,-0.057 0.228886,-0.11708 0.346749,-0.18035 0.117862,-0.0633 0.237487,-0.12963 0.358634,-0.19895 0.121147,-0.0693 0.24334,-0.14134 0.365869,-0.21653 0.12253,-0.0752 0.24541,-0.15324 0.36742,-0.23409 0.05545,-0.0368 0.109808,-0.0762 0.164848,-0.1142 z" />
          <path
             id="path38"
             style="fill:#ececec;fill-opacity:1;stroke:none;stroke-width:0.0241708;stroke-linecap:round;stroke-linejoin:round;stroke-dasharray:none;stroke-dashoffset:0;stroke-opacity:1;paint-order:stroke fill markers"
             d="m 88.092814,148.9599 a 4.7764993,4.7764993 0 0 0 -4.776453,4.77645 4.7764993,4.7764993 0 0 0 2.897498,4.38268 4.7764993,4.7764993 0 0 0 0.02274,0.008 c 0.0053,-6.1e-4 0.0097,-9.3e-4 0.01499,-0.002 0.06872,-0.008 0.139297,-0.0166 0.211356,-0.0258 0.07206,-0.009 0.145377,-0.0193 0.220142,-0.03 0.07476,-0.0107 0.151062,-0.0225 0.227893,-0.0346 0.07683,-0.0122 0.154286,-0.025 0.232544,-0.0388 0.07826,-0.0137 0.157114,-0.028 0.236161,-0.0434 0.07905,-0.0154 0.158515,-0.0315 0.237712,-0.0486 0.0792,-0.0171 0.15795,-0.0355 0.236678,-0.0543 0.07873,-0.0187 0.157468,-0.0379 0.235128,-0.0579 0.07766,-0.02 0.154483,-0.0406 0.230477,-0.0615 0.07599,-0.0209 0.151064,-0.0421 0.224792,-0.0636 0.07373,-0.0214 0.146177,-0.043 0.217041,-0.0646 0.07086,-0.0216 0.139821,-0.0432 0.207223,-0.0646 0.134802,-0.0429 0.262463,-0.085 0.379821,-0.12506 0.09405,-0.0321 0.17624,-0.0613 0.256316,-0.0899 0.0081,-0.006 0.01623,-0.0109 0.02429,-0.0165 0.05791,-0.0402 0.116365,-0.0791 0.173633,-0.12041 0.05979,-0.0432 0.119453,-0.0868 0.178284,-0.13126 0.05883,-0.0445 0.117035,-0.0896 0.174666,-0.13539 0.05763,-0.0458 0.114856,-0.0924 0.171049,-0.13952 0.05619,-0.0471 0.111364,-0.0948 0.165882,-0.14315 0.05452,-0.0483 0.10811,-0.0972 0.160713,-0.14676 0.0526,-0.0496 0.104061,-0.0996 0.154513,-0.15038 0.05045,-0.0508 0.100109,-0.10261 0.148311,-0.15451 0.0482,-0.0519 0.09508,-0.10426 0.141077,-0.1571 0.04599,-0.0528 0.09105,-0.10608 0.134875,-0.15968 0.04382,-0.0536 0.08646,-0.10755 0.128158,-0.16174 0.0417,-0.0542 0.08235,-0.1087 0.121956,-0.1633 0.03961,-0.0546 0.07819,-0.10897 0.115756,-0.16382 0.03756,-0.0548 0.074,-0.10993 0.109554,-0.16484 0.03556,-0.0549 0.07028,-0.11005 0.103869,-0.16485 0.06719,-0.10961 0.130602,-0.21846 0.190169,-0.3266 0.05957,-0.10813 0.115151,-0.21512 0.167432,-0.32039 0.05228,-0.10527 0.100927,-0.20905 0.146244,-0.31006 0.04532,-0.10101 0.08741,-0.1992 0.126091,-0.29455 0.03868,-0.0954 0.07409,-0.18765 0.106453,-0.27596 0.03237,-0.0883 0.06147,-0.17282 0.08785,-0.25269 0.02638,-0.0799 0.05008,-0.15527 0.0708,-0.22531 0.02072,-0.07 0.03887,-0.13497 0.05426,-0.19379 0.0056,-0.0214 0.009,-0.0376 0.01395,-0.0574 a 4.7764993,4.7764993 0 0 0 -0.02274,-0.10232 4.7764993,4.7764993 0 0 0 -4.659147,-3.73104 z m 1.249019,8.44548 c -0.117819,0.0395 -0.245678,0.0811 -0.380855,0.12351 0.135177,-0.0424 0.263036,-0.084 0.380855,-0.12351 z" />
        </g>
      </g>
      <path
         id="path14"
         style="fill:#d8ff00;fill-opacity:1;stroke-width:2.92339;stroke-dasharray:none"
         d="m 127.76343,106.15143 a 3.9949445,5.0675082 30.476627 0 0 -4.64829,3.70158 3.9949445,5.0675082 30.476627 0 0 2.05879,5.79551 3.9949445,5.0675082 30.476627 0 0 2.73678,-0.28887 3.9949445,5.0675082 30.476627 0 0 0.0119,-0.006 3.9949445,5.0675082 30.476627 0 0 0.0992,-0.0481 3.9949445,5.0675082 30.476627 0 0 0.0522,-0.0264 3.9949445,5.0675082 30.476627 0 0 0.0517,-0.0269 3.9949445,5.0675082 30.476627 0 0 0.11007,-0.0594 3.9949445,5.0675082 30.476627 0 0 0.0109,-0.006 3.9949445,5.0675082 30.476627 0 0 0.061,-0.0351 3.9949445,5.0675082 30.476627 0 0 0.008,-0.005 3.9949445,5.0675082 30.476627 0 0 0.0966,-0.0579 3.9949445,5.0675082 30.476627 0 0 0.062,-0.0382 3.9949445,5.0675082 30.476627 0 0 0.0579,-0.0372 3.9949445,5.0675082 30.476627 0 0 0.0987,-0.0651 3.9949445,5.0675082 30.476627 0 0 0.0491,-0.0341 3.9949445,5.0675082 30.476627 0 0 0.12609,-0.0894 3.9949445,5.0675082 30.476627 0 0 0.0357,-0.0269 3.9949445,5.0675082 30.476627 0 0 0.0946,-0.0729 3.9949445,5.0675082 30.476627 0 0 0.0749,-0.0589 3.9949445,5.0675082 30.476627 0 0 0.14676,-0.12299 3.9949445,5.0675082 30.476627 0 0 0.0295,-0.0258 3.9949445,5.0675082 30.476627 0 0 0.14263,-0.12919 3.9949445,5.0675082 30.476627 0 0 0.0294,-0.0284 3.9949445,5.0675082 30.476627 0 0 0.0124,-0.0114 3.9949445,5.0675082 30.476627 0 0 0.10284,-0.10077 3.9949445,5.0675082 30.476627 0 0 0.0352,-0.0357 3.9949445,5.0675082 30.476627 0 0 0.0357,-0.0367 3.9949445,5.0675082 30.476627 0 0 0.11574,-0.123 3.9949445,5.0675082 30.476627 0 0 0.0134,-0.0145 3.9949445,5.0675082 30.476627 0 0 0.1292,-0.14728 3.9949445,5.0675082 30.476627 0 0 0.0346,-0.0403 3.9949445,5.0675082 30.476627 0 0 0.12247,-0.15141 3.9949445,5.0675082 30.476627 0 0 0.0171,-0.0217 3.9949445,5.0675082 30.476627 0 0 0.11936,-0.15814 3.9949445,5.0675082 30.476627 0 0 0.0233,-0.0315 3.9949445,5.0675082 30.476627 0 0 0.10852,-0.15606 3.9949445,5.0675082 30.476627 0 0 0.0227,-0.0336 3.9949445,5.0675082 30.476627 0 0 0.003,-0.004 3.9949445,5.0675082 30.476627 0 0 0.10489,-0.16175 3.9949445,5.0675082 30.476627 0 0 0.001,-0.002 3.9949445,5.0675082 30.476627 0 0 0.0243,-0.0403 3.9949445,5.0675082 30.476627 0 0 0.10335,-0.17415 3.9949445,5.0675082 30.476627 0 0 0.10387,-0.18913 3.9949445,5.0675082 30.476627 0 0 0.0129,-0.0243 3.9949445,5.0675082 30.476627 0 0 0.10025,-0.20102 3.9949445,5.0675082 30.476627 0 0 0.094,-0.20671 3.9949445,5.0675082 30.476627 0 0 0.005,-0.0103 3.9949445,5.0675082 30.476627 0 0 0.0868,-0.21033 3.9949445,5.0675082 30.476627 0 0 0.19068,-0.57671 3.9949445,5.0675082 30.476627 0 0 0.0568,-0.24184 3.9949445,5.0675082 30.476627 0 0 0.0724,-0.33538 3.9949445,5.0675082 30.476627 0 0 0.0408,-0.29869 3.9949445,5.0675082 30.476627 0 0 0.0279,-0.27802 3.9949445,5.0675082 30.476627 0 0 0.0119,-0.3173 3.9949445,5.0675082 30.476627 0 0 -0.004,-0.24649 3.9949445,5.0675082 30.476627 0 0 -0.0217,-0.3297 3.9949445,5.0675082 30.476627 0 0 -0.0279,-0.19792 3.9949445,5.0675082 30.476627 0 0 -0.0636,-0.35553 3.9949445,5.0675082 30.476627 0 0 -0.0284,-0.10181 3.9949445,5.0675082 30.476627 0 0 -0.11833,-0.39325 3.9949445,5.0675082 30.476627 0 0 -0.19534,-0.44442 3.9949445,5.0675082 30.476627 0 0 -0.24236,-0.40153 3.9949445,5.0675082 30.476627 0 0 -0.003,-0.004 3.9949445,5.0675082 30.476627 0 0 -1.75493,-1.27279 3.9949445,5.0675082 30.476627 0 0 -1.06867,-0.12764 z" />
      <g
         id="g43">
        <path
           id="path3-5"
           style="fill:#d8ff00;fill-opacity:1;stroke-width:2.81966;stroke-dasharray:none"
           d="m 117.33014,138.39893 c -0.0589,0.009 -0.14947,0.0724 -0.26252,0.19842 h -5.2e-4 c -3.7694,3.49092 -9.34686,4.9268 -9.67124,5.00333 -0.23376,0.0551 -0.26858,0.32542 -0.11111,0.41391 1.39815,0.78569 2.99551,2.70653 0.57568,8.6553 -1.55357,3.81923 -4.49144,7.67971 -5.79034,10.04692 -0.321,0.58501 -0.53895,1.07553 -0.68007,1.49293 -0.0377,0.11142 -0.0725,0.2206 -0.0992,0.32144 -0.007,0.0273 -0.0111,0.0515 -0.0176,0.078 0.27191,-0.11176 0.572,-0.2384 0.89711,-0.38137 -0.32511,0.14297 -0.6252,0.26961 -0.89711,0.38137 -0.24204,0.99469 0.0469,1.46942 0.46923,1.71308 0.63126,0.36419 1.55409,0.21803 3.42356,-1.90635 0.73548,-0.83577 1.61786,-1.98203 2.52078,-3.25508 0.0577,-0.0814 0.11576,-0.16661 0.17363,-0.2491 5.7e-4,-8.1e-4 9.8e-4,-0.002 0.002,-0.003 1.33705,-1.90456 2.70163,-4.06277 3.6897,-5.92521 0.94992,-1.79057 1.50851,-3.30471 1.93115,-4.66019 0.33377,-1.07045 0.58464,-2.04427 0.86351,-2.96105 0.8048,-2.64576 1.68172,-6.01063 2.96933,-8.59742 0.12237,-0.24583 0.11261,-0.38143 0.0145,-0.36637 z m -9.90741,20.27058 c -0.2985,0.36036 -0.59172,0.70459 -0.87695,1.02682 -0.28523,0.3222 -0.5622,0.62277 -0.83147,0.90382 -0.26927,0.28104 -0.53112,0.54242 -0.78548,0.78703 -0.25437,0.24461 -0.50157,0.4723 -0.74208,0.68523 0.24051,-0.21293 0.48771,-0.44062 0.74208,-0.68523 0.25436,-0.24461 0.51621,-0.50599 0.78548,-0.78703 0.26927,-0.28105 0.54624,-0.58161 0.83147,-0.90382 0.28523,-0.32223 0.57845,-0.66646 0.87695,-1.02682 z m -0.0982,2.75126 c -0.18463,0.12846 -0.37275,0.25538 -0.56379,0.37982 -0.19105,0.12445 -0.38539,0.24642 -0.58136,0.36588 -0.19598,0.11946 -0.39356,0.23627 -0.59222,0.35035 0.19866,-0.11408 0.39624,-0.23089 0.59222,-0.35035 0.16058,-0.0979 0.31897,-0.19849 0.47645,-0.29973 0.0347,-0.0223 0.0704,-0.0437 0.10491,-0.0661 0.19104,-0.12445 0.37916,-0.25136 0.56379,-0.37982 z" />
        <g
           id="g42"
           transform="translate(0.01762194,-0.008375)">
          <path
             id="path3"
             style="fill:#adcc00;fill-opacity:1;stroke-width:2.81966;stroke-dasharray:none"
             d="m 107.6694,161.16898 c -0.12002,0.0869 -0.2391,0.17424 -0.36225,0.25993 -0.18463,0.12846 -0.37275,0.25537 -0.56379,0.37982 -0.19105,0.12445 -0.38539,0.24641 -0.58136,0.36587 -0.19598,0.11946 -0.39356,0.23628 -0.59222,0.35036 -0.19865,0.11409 -0.39829,0.22551 -0.59738,0.33383 -0.19908,0.10832 -0.39752,0.21358 -0.59479,0.31575 -0.19727,0.10216 -0.39333,0.201 -0.58653,0.29662 -0.1932,0.0956 -0.38362,0.1883 -0.57051,0.27699 -0.18688,0.0887 -0.36997,0.17339 -0.54828,0.25476 -0.17832,0.0814 -0.35185,0.1594 -0.51935,0.23306 -0.32511,0.14297 -0.6252,0.2696 -0.89711,0.38137 -0.24205,0.99469 0.0469,1.46941 0.46923,1.71308 0.63126,0.36419 1.55409,0.21803 3.42356,-1.90635 0.73548,-0.83577 1.61786,-1.98202 2.52078,-3.25509 z" />
          <path
             id="path40"
             style="fill:#c2e500;fill-opacity:1;stroke-width:2.81966;stroke-dasharray:none"
             d="m 113.46543,150.33191 c -0.0573,0.0882 -0.0908,0.14285 -0.1509,0.23461 -0.2119,0.32357 -0.44121,0.66855 -0.68471,1.02991 -0.24351,0.36137 -0.50128,0.73927 -0.76998,1.12758 -0.2687,0.38831 -0.54865,0.78725 -0.83613,1.19166 -0.28748,0.40441 -0.58278,0.81403 -0.88263,1.2237 -0.29985,0.40967 -0.60421,0.81962 -0.91002,1.2237 -0.30581,0.40407 -0.61293,0.80246 -0.91829,1.19011 -0.30536,0.38763 -0.60894,0.76412 -0.90744,1.12447 -0.2985,0.36036 -0.59172,0.70459 -0.87695,1.02682 -0.28523,0.32221 -0.5622,0.62277 -0.83147,0.90382 -0.26927,0.28104 -0.53112,0.54242 -0.78548,0.78703 -0.25437,0.24461 -0.50157,0.4723 -0.74208,0.68523 -0.24051,0.21293 -0.47405,0.41137 -0.70176,0.59738 -0.22771,0.186 -0.44964,0.35966 -0.6656,0.52348 -0.21595,0.16382 -0.42623,0.31766 -0.63148,0.46405 -0.20526,0.1464 -0.40539,0.28538 -0.601,0.4191 -0.0672,0.0459 -0.13078,0.0885 -0.19689,0.13332 -0.0377,0.11142 -0.0725,0.2206 -0.0992,0.32143 -0.007,0.0273 -0.0111,0.0515 -0.0176,0.078 0.27191,-0.11177 0.572,-0.2384 0.89711,-0.38137 0.1675,-0.0737 0.34103,-0.15169 0.51935,-0.23306 0.17831,-0.0814 0.3614,-0.16607 0.54828,-0.25476 0.18689,-0.0887 0.37731,-0.18137 0.57051,-0.27699 0.1932,-0.0956 0.38926,-0.19446 0.58653,-0.29662 0.19727,-0.10217 0.39571,-0.20743 0.59479,-0.31575 0.19909,-0.10832 0.39873,-0.21974 0.59738,-0.33383 0.19866,-0.11408 0.39624,-0.2309 0.59222,-0.35036 0.16058,-0.0979 0.31897,-0.19848 0.47645,-0.29972 0.17224,-0.12847 0.34439,-0.25676 0.51522,-0.3912 0.23111,-0.18188 0.46073,-0.36952 0.68729,-0.56223 -0.22656,0.19271 -0.45618,0.38035 -0.68729,0.56223 -0.17083,0.13444 -0.34298,0.26273 -0.51522,0.3912 0.0347,-0.0223 0.0704,-0.0437 0.10491,-0.0661 0.19104,-0.12445 0.37916,-0.25136 0.56379,-0.37982 0.12315,-0.0857 0.24223,-0.17304 0.36225,-0.25993 0.0577,-0.0814 0.11576,-0.1666 0.17363,-0.24909 5.7e-4,-8.1e-4 9.8e-4,-0.002 0.002,-0.003 1.33705,-1.90457 2.70163,-4.06277 3.6897,-5.92522 0.94992,-1.79056 1.50851,-3.30471 1.93115,-4.66018 z" />
          <path
             id="path41"
             style="fill:#d8ff00;fill-opacity:1;stroke-width:2.81966;stroke-dasharray:none"
             d="m 117.31274,138.40706 c -0.0589,0.009 -0.14947,0.0724 -0.26252,0.19843 h -5.2e-4 c -3.76941,3.49092 -9.34686,4.9268 -9.67124,5.00332 -0.23376,0.0551 -0.26858,0.32543 -0.11111,0.41392 1.39815,0.78569 2.99551,2.70652 0.57568,8.65529 -1.55357,3.81923 -4.49143,7.67971 -5.79034,10.04693 -0.321,0.585 -0.53895,1.07552 -0.68007,1.49293 0.0661,-0.0448 0.12973,-0.0874 0.19689,-0.13332 0.19561,-0.13372 0.39574,-0.2727 0.601,-0.4191 0.20525,-0.14639 0.41553,-0.30023 0.63148,-0.46405 0.21596,-0.16382 0.43789,-0.33748 0.6656,-0.52348 0.22771,-0.18601 0.46125,-0.38445 0.70176,-0.59738 0.24051,-0.21293 0.48771,-0.44062 0.74208,-0.68523 0.25436,-0.24461 0.51621,-0.50599 0.78548,-0.78703 0.26927,-0.28105 0.54624,-0.5816 0.83147,-0.90382 0.28523,-0.32223 0.57845,-0.66646 0.87695,-1.02682 0.2985,-0.36035 0.60208,-0.73683 0.90744,-1.12447 0.30536,-0.38765 0.61248,-0.78604 0.91829,-1.19011 0.30581,-0.40408 0.61017,-0.81403 0.91002,-1.2237 0.29985,-0.40967 0.59515,-0.81929 0.88263,-1.2237 0.28748,-0.40441 0.56743,-0.80335 0.83613,-1.19166 0.2687,-0.38831 0.52647,-0.76621 0.76998,-1.12758 0.2435,-0.36136 0.47281,-0.70634 0.68471,-1.02991 0.0601,-0.0918 0.0936,-0.1464 0.1509,-0.23461 0.33377,-1.07046 0.58464,-2.04428 0.86351,-2.96106 0.8048,-2.64576 1.68172,-6.01063 2.96933,-8.59741 0.12237,-0.24583 0.11261,-0.38144 0.0145,-0.36638 z" />
        </g>
      </g>
      <path
         id="path21"
         style="fill:#d8ff00;fill-opacity:1;stroke-width:2.81966;stroke-dasharray:none"
         d="m 115.55222,117.3097 c -0.44575,-0.0101 -0.89229,-0.005 -1.33842,0.0202 -3.56901,0.19424 -7.11343,1.55398 -10.34252,3.1564 -3.22909,1.60241 -6.142306,3.44784 -7.623308,4.80746 -1.481002,1.35961 -1.529974,2.23362 -1.068669,2.67063 0.461305,0.43703 1.432792,0.43689 3.023072,-0.3886 1.590278,-0.8255 3.799215,-2.47657 6.567045,-3.82406 2.76782,-1.34749 6.09392,-2.39155 6.77374,-0.88625 0.36901,0.81709 0.44273,1.82969 -0.0912,3.3571 -0.30731,0.63639 -0.51455,1.57374 0.44301,0.66139 1.30234,-1.24083 4.35766,-3.67255 6.40719,-4.57425 2.81557,-1.23873 6.67839,-1.48083 8.63169,-1.62122 0.73149,-0.0526 0.74161,-0.41583 0.13646,-0.66844 -3.1297,-1.18239 -7.6985,-2.62533 -11.51807,-2.71024 z"
         sodipodi:nodetypes="scsssssscssscss" />
      <path
         style="fill:#d8ff00;fill-opacity:0.99854;stroke:none;stroke-width:0.0264583;stroke-linecap:round;stroke-linejoin:round;stroke-dasharray:none;stroke-dashoffset:0;stroke-opacity:1;paint-order:stroke fill markers"
         d="m 101.29946,130.10687 c -1.687715,0.58703 -6.850558,4.44238 -9.077602,6.9019 -2.227045,2.45953 -1.518167,3.52305 -0.674354,3.86697 0.843814,0.34392 1.822461,-0.0318 3.155751,-1.15064 1.33329,-1.11884 3.021102,-2.9807 4.758782,-5.25233 1.737683,-2.27164 3.525143,-4.95294 1.837423,-4.3659 z"
         id="path31"
         transform="rotate(-178.477,97.02877,135.7048)"
         sodipodi:nodetypes="cccccc"
         inkscape:original-d="m 104.77467,126.83849 c -5.162925,3.85541 -10.325767,7.71076 -15.488774,11.56623 0.708917,1.06358 1.417797,2.1271 2.126717,3.19069 0.978704,-0.37575 1.957349,-0.75148 2.936054,-1.12722 1.687879,-1.86193 3.375688,-3.72379 5.063533,-5.58568 1.78752,-2.68138 3.57498,-5.36268 5.36247,-8.04402 z"
         inkscape:path-effect="#path-effect31" />
      <path
         style="fill:#ececec;fill-opacity:0.99854;stroke:none;stroke-width:0.0264583;stroke-linecap:round;stroke-linejoin:round;stroke-dasharray:none;stroke-dashoffset:0;stroke-opacity:1;paint-order:stroke fill markers"
         d="m 128.56118,122.90326 c -2.51153,-0.0761 -5.64714,0.0152 -8.75233,1.14925 -3.1052,1.13401 -5.1595,2.5883 -7.8659,5.86234 -2.70641,3.27403 -3.0295,4.16875 -8.76777,7.38504 -5.738269,3.21629 -9.641907,4.27663 -12.684967,5.93727 -3.04306,1.66064 -1.124183,2.39164 3.031342,1.76755 4.155526,-0.6241 10.241285,-2.72895 14.139325,-4.2185 3.89803,-1.48954 5.63324,-2.37236 7.70338,-4.00107 2.07013,-1.62872 4.47506,-4.00321 6.07332,-5.70802 1.59825,-1.70481 2.38975,-2.73984 3.31826,-3.36392 0.92852,-0.62408 1.994,-0.83718 3.72926,-0.94373 1.73526,-0.10655 4.1402,-0.10655 6.95851,-0.55075 2.81831,-0.4442 6.04973,-1.33253 8.08964,-2.1333 2.03992,-0.80077 2.88801,-1.51385 2.71627,-1.94467 -0.17173,-0.43083 -1.36329,-0.57934 -3.43363,-0.31134 -2.07034,0.268 -5.01927,0.9525 -7.43751,1.17299 -2.41825,0.22049 -4.30566,-0.023 -6.8172,-0.0991 z"
         id="path32"
         transform="translate(0.18265683,0.18265683)"
         sodipodi:nodetypes="ccccccccccccccccc"
         inkscape:original-d="m 129.18526,122.73583 c -3.13561,0.0913 -6.27122,0.18266 -9.40682,0.27399 -3.07479,2.1767 -5.12909,3.63099 -9.22417,6.52998 -1.31773,3.64908 -1.64082,4.5438 -2.96818,8.21956 -10.149178,2.75682 -14.052817,3.81716 -22.695108,6.16466 2.556171,0.97378 4.475049,1.70478 6.712638,2.5572 6.073459,-2.10061 12.15922,-4.20547 18.22002,-6.30169 1.73527,-0.88286 3.47048,-1.76568 5.20572,-2.64852 2.40503,-2.37459 4.80996,-4.74908 7.21494,-7.12362 0.79153,-1.03508 1.58303,-2.07011 2.37454,-3.10517 1.06552,-0.2131 2.131,-0.4262 3.1965,-0.6393 2.40502,0 4.80996,0 7.21494,0 3.23164,-0.88839 6.46306,-1.77673 9.69474,-2.66514 0.84815,-0.71313 1.69624,-1.42621 2.54438,-2.13933 -1.19161,-0.14853 -2.38317,-0.29704 -3.57479,-0.44557 -2.94906,0.68453 -5.89799,1.36903 -8.84699,2.05355 -1.88854,-0.23539 -3.77636,-0.47576 -5.66236,-0.7306 z"
         inkscape:path-effect="#path-effect33" />
    </g>
  </g>
</svg>
